<?xml version="1.0" standalone="no"?><!DOCTYPE svg PUBLIC "-//W3C//DTD SVG 1.1//EN" "http://www.w3.org/Graphics/SVG/1.1/DTD/svg11.dtd"><svg t="1581081777129" class="icon" viewBox="0 0 1024 1024" version="1.1" xmlns="http://www.w3.org/2000/svg" p-id="2093" xmlns:xlink="http://www.w3.org/1999/xlink" width="200" height="200"><defs><style type="text/css"></style></defs><path d="M610.9373 458.058332c-0.214209-0.25828-0.432517-0.517586-0.671324-0.79329 0.184486 0.277754 0.378196 0.520661 0.652876 0.764592C610.99367 458.113678 610.99367 458.125977 610.9373 458.058332zM678.232681 884.424014c0.073794-0.038947 0.188586-0.065595 0.273654-0.106592-0.141439 0-0.273654 0-0.415094 0C676.458541 884.33997 676.510812 884.398391 678.232681 884.424014zM927.50714 472.590708c10.343517-27.74465 21.028334-56.439403 23.312886-86.47988 6.301223-82.667168-35.876385-178.57326-104.940783-238.655238-26.063777-22.679484-60.306436-41.729717-93.924916-52.26182-26.858092-8.427937-65.708802-15.219073-100.934361-1.239131-1.798739-0.153738-3.654873-0.234707-5.563279-0.274679-26.635684-9.917149-82.179305 8.243451-107.070572 16.373136l-3.597478 1.18276c-32.037025 10.399888-60.964436 30.208564-85.993042 58.853096-26.526017 30.372551-33.750696 63.457047-41.386368 98.476597-3.405817 15.764332-6.981772 32.039075-12.433334 48.151881-14.994615 44.238727-40.979474 52.781455-85.561549 64.072001l-17.687086 4.417416c-55.786528 13.824154-113.449689 28.139245-157.841129 65.190191-51.690938 43.143085-71.676925 102.544514-56.244668 167.264266 7.713566 32.379349 26.500394 73.72677 72.251907 86.787357 15.59522 4.456363 48.368139 4.636749 66.799319-6.708117 11.094785-6.841357 18.324588-21.047807 17.561021-34.543986-0.32695-6.132111-2.3153-11.246474-5.673971-15.032537-5.42184-13.310668-22.680508-22.398655-44.520581-14.003515 25.925413-9.963271 33.967979 24.799023 9.922274 28.794171-18.56852 3.103465-37.703821-30.704626-39.719844-45.260575-5.620675-40.813436 24.4485-78.276401 54.219421-101.723551 30.98033-24.405453 68.223962-40.329673 106.722098-47.344242 35.197886-6.426264 74.918755-9.91305 95.803599-43.2712-16.437706 44.265375-62.791873 47.536927-99.7557 58.986336-38.858909 12.039764-87.414609 31.494841-103.113346 73.343449-14.317141 38.114815 28.21304 46.570425 40.702744 75.019197 14.2044 32.390624-7.939049 75.005873-43.73139 77.442114 22.437602-1.520985 41.54933 3.522658 56.955964-18.561345 18.373784-26.351781 1.250405-45.25955-5.590952-71.628754-16.389535-63.170069 87.60012-109.029198 141.092872-106.16659-30.206514 4.361045-86.100659 34.789967-101.589286 62.625835-20.363159 36.549759 15.353338 70.3599 7.336395 106.879936-10.909274 49.48428-59.327635 44.917226-99.350856 47.383189-21.571542 1.340599-42.262676-0.790215-61.076153 11.292595-6.27355 4.034095-38.908105 34.964204-35.684724 43.14411-0.221383 0.420218-0.415094 0.832237-0.632377 1.252455 48.641794-83.088412 146.685873 4.988297 206.339433-46.088712 30.597009-26.200092 18.978489-67.805793 40.10624-99.965809 25.387329-38.6488 70.971779-55.442154 112.661523-63.101399-29.665355 13.714487-62.740627 30.58881-83.785359 56.205721-20.861271 25.395528-17.180775 45.926774-24.18612 77.048544-10.117009 45.19293-43.242502 52.635916-83.591648 58.631713-34.143241 5.071316-100.310183 2.810337-101.785047 49.705663-1.111016 35.102568 68.025127 64.044328 87.304942 29.921585 7.852956-13.907172 2.099041-29.976931-11.832729-37.897532-18.377884-10.458308-21.730405 4.591652-36.233058 5.823609 36.830588-3.082967 10.932848 44.929525-9.193554 18.972339-13.251222-17.118254 1.910455-29.33328 14.316117-38.181435 29.360953-20.984262 75.090942-6.038843 107.038799-19.334137 23.420502-9.731638 49.106083-28.80442 61.565041-51.368087 17.017812-30.832741 12.868926-68.606258 37.545983-95.871244 25.326858-27.974233 67.671528-33.416571 103.52024-40.246654-29.060651 6.599476-71.296679 17.069058-91.360561 41.268502-20.724956 24.957886-11.916773 61.426676-32.991228 87.20655 21.183097-15.908846 26.880641-48.74941 45.858104-69.772619 24.730353-27.395152 64.887839-49.291594 101.616959-52.427857-89.592569 8.368492-89.974865 103.579686-139.923435 154.613648-30.176791 30.839916-69.083871 31.195564-99.514843 55.433955-43.652471 34.737696 10.44191 41.972623 4.635724 72.86276-3.870107 20.488199-48.970794 46.103061-52.868574 17.873622-8.018993 4.633674-9.758286 9.691666-7.445037 14.124456 0.192685 3.594403 1.476913 7.153959 3.89983 10.493156 6.850582 9.436461 20.941215 15.420983 30.645181 15.756133 19.878371 0.713346 41.825035-9.843355 53.356437-25.648684 12.980643-17.766005 7.774037-34.603431 2.754991-50.878174-6.050117-19.548346-11.258773-36.428818 14.943369-52.266944 15.209849-9.191504 32.990203-14.680989 50.168928-19.981888 9.589174-2.96715 19.465327-6.018345 28.73165-9.654769 22.46835-8.862504 40.135962-29.360953 47.224326-54.89792l0.764592-2.823661c1.661399-6.052167 3.381219-12.294969 5.700619-18.128828 3.843459-9.654769 8.887102-19.263417 14.556973-27.838943 16.496127-24.868718 44.52263-44.19568 73.559708-51.341439-47.276597 28.298108-94.691558 99.300635-89.77808 155.807683 4.715668 54.282967 110.446666 89.439856 112.954651 28.010105-23.289312 35.637578-71.192137 0-65.7375-34.785867 6.350419-40.602302 49.160404-34.924232 76.774889-50.165853 19.523747-10.771935 34.08277-28.436473 45.619297-47.902825 6.701968-64.593686-52.346888-150.009697-109.388946-137.361129-8.043591 1.774141-24.597113 10.315844-45.561902 8.079464-9.868978-1.046446-19.577043-10.453184-20.306788-20.840773-1.089493-14.476004 8.447411-25.915164-6.111612-33.545711-10.691991-5.606326-16.764656-19.321838 2.539758-23.899141-11.179854 1.526109-20.777228-3.982849-21.869795-12.188378-1.771066-13.465431 15.053036-14.412459 7.612099-29.036052-5.402366-10.553626-23.638811-8.561177-22.361758-23.327235 0.955228-10.657143 12.981668-22.612864 18.948766-30.342829 10.060639-13.046238 17.938192-26.976983 20.939165-43.310147 2.728344-14.792705-3.213132-26.063777-4.82841-40.584878-2.285577-20.762879 0.107617-40.883131 8.237302-60.156797 7.281049-12.254997 15.435332-23.833546 25.767575-33.289481 20.992461-19.196797 47.085961-32.432645 72.74182-44.224378-28.4129 15.225223-8.835856 53.71106 5.400316 71.54471 16.489977 20.667561 45.995444 30.0579 60.254165 52.321265 7.172407 11.209577 10.688916 29.879564 9.377015 46.484332-0.680548 8.709791-2.671973 16.847675-6.159784 23.021808-19.194747 33.769144-88.636317 60.627237-66.172067 109.346924 4.82636 10.456259 14.176727 18.349186 25.928488 15.598294 7.336395-1.71982 15.325665-7.689993 14.39606-16.307541-0.921405-8.762062-9.050065-15.085833-17.31299-10.085237-6.924376 4.202182-6.325821 9.081838-2.314275 13.852852-2.18616-3.409917 3.864982-8.098937 7.248251-5.860506 7.52498 4.901179-10.689941 21.124676-15.294917 5.806186-2.156437-7.063765-0.569857-16.524824 2.533608-23.069979 5.456687-11.559075 15.107357-22.491923 25.902865-29.378377 20.720857-13.221499 38.636501-2.64225 59.407579-6.229479-69.251959 11.95777-49.236249 76.518659-3.10244 102.106872 18.018136 10.008368 40.950776 17.029086 52.212623 35.651927 8.123535 13.451082 11.476056 40.774489-8.287523 46.44231-17.701435 5.072341-31.770545-20.000336-14.370437-29.228738-17.045485 9.05109-29.859065 19.510423-14.072185 40.475212 13.826204 18.363535 40.596153 12.662917 52.865499-4.908354 19.170149-27.493544-7.223653-106.75592 45.700266-104.57591 30.59291 1.272954 2.423942 31.521489-2.753967 43.900502-20.28834 48.309719 13.712437 70.912333 38.955252 110.012099 30.895262 47.862853 24.954811 96.080328 0.52271 136.938861 4.82431-5.868706 9.38009-11.698465 13.385487-17.203323 22.873194-31.451795 26.940086-72.048972 10.660218-105.949306-5.072341-10.581299-13.522827-20.61529-21.707857-30.304906-10.055514-11.983393-20.304738-24.214817-24.532543-37.765317-13.359864-22.428378 6.350419-47.959195 23.71568-70.480841 7.936999-10.247174 15.407659-19.95729 18.977464-28.355504 6.220254-14.669715 6.899778-26.69103 2.102116-36.764992-9.953022-20.872545-41.956225-30.114271-75.84836-39.90433-44.115736-12.730562-89.758607-25.900815-92.154875-66.480569-1.525085-25.890566 12.29292-47.062388 25.682506-67.538288 14.967967-22.943914 30.485293-46.680092 25.496995-77.772139-4.334397-26.964684-22.035832-54.191749-46.132784-71.037374l-6.2715-4.488135c-7.474759-5.409541-17.259694-12.516353-27.130722-18.129853 1.443091 0.126065 2.858509 0.273654 4.282126 0.46634 8.776411 5.28655 17.230996 11.420711 23.881718 16.222472l6.241778 4.462512c24.514095 17.127479 42.454337 44.801409 46.868678 72.228334 5.129737 31.765421-10.574125 55.786528-25.76655 79.025619-13.816979 21.161573-26.88269 41.15986-25.382204 66.45597 2.319399 39.331398 47.333993 52.323315 90.874747 64.893989 34.271356 9.895626 66.65993 19.235744 76.967575 40.829835 5.01597 10.563875 4.334397 23.065879-2.071368 38.237806-3.651799 8.585775-11.203427 18.377884-19.219345 28.736775-14.916721 19.315688-31.57581 40.896455-26.938036 60.337183-0.650826-7.473734 0.735894-15.406634 5.097964-23.91144 6.598451-12.788982 18.014037-23.787425 29.0627-34.435344 19.137352-18.461928 38.964476-37.559307 33.703549-66.345279-8.429987-45.999544-69.17509-70.55361-104.64868-81.075464l-5.042618-1.471789c-19.847623-5.727267-38.608828-11.135782-39.914579-35.195836-0.956253-17.685037 8.371566-32.024726 17.362186-45.890902 7.235952-11.123483 14.699437-22.628237 16.85075-35.824114 5.513058-33.713798-15.374861-84.724188-37.567507-109.412519-16.522774-18.376859-34.652627-28.684504-54.719584-37.027373 2.860559 0.492988 5.699594 1.092567 8.505831 1.775166 17.17565 7.877554 32.931783 17.851074 47.521553 34.061247 22.467325 24.994783 43.5961 76.685721 38.003099 110.901732-2.201533 13.550499-9.78186 25.204892-17.118254 36.480064-9.239676 14.259746-17.991488 27.729276-17.068033 44.849581 1.25963 22.7953 19.41818 28.030604 38.634451 33.591833l5.068241 1.45539c35.854861 10.650994 97.260014 35.545335 105.844764 82.467309 5.449513 29.713526-14.697388 49.15323-34.187313 67.941083-10.935922 10.553626-22.254141 21.444452-28.713202 33.956705-5.864606 11.386888-6.2715 21.553094-3.434515 31.097171 0.058421 0.055346 0.058421 0.108642 0.111717 0.192685l-0.056371 0.011274c3.952101 13.127206 14.00864 25.130073 24.423902 37.474239 8.235252 9.804408 16.739033 19.908093 21.926166 30.689252 16.568896 34.48659 12.431284 75.780715-10.827281 107.763419-6.434463 8.861479-14.286394 18.541872-22.4663 27.864566-28.872065 40.816511-75.714095 72.920156-120.018417 87.712862-11.017916 3.666148-21.181047 5.044668-31.574785 9.539978 9.974545 0.46634 20.208396-0.022548 30.537564-1.387745 46.484332 0.052271 103.357278-30.824542 133.159972-49.268021 47.415986-29.338405 78.850357-65.844092 90.90242-105.540362 9.457984-31.080773-1.720845-62.903589-12.515328-93.658437-8.424862-23.992409-17.123379-48.819105-16.087182-73.175362C905.837205 530.823725 916.852047 501.230115 927.50714 472.590708zM582.746808 622.274479c-30.341804 6.734765-59.896467 26.721778-77.10389 52.675888-5.74879 8.656495-10.845729 18.401457-14.723011 28.151544-2.340923 5.929176-4.090465 12.230399-5.75084 18.336887l-0.78919 2.804188c-6.954099 24.97736-24.18612 45.05764-46.187104 53.71311-9.160757 3.628225-19.03076 6.668145-28.577912 9.599423-17.280192 5.342921-35.168163 10.877502-50.573772 20.174573-27.396177 16.548398-21.725281 34.900659-15.699762 54.311664 4.874531 15.85555 9.948922 32.253284-2.488512 49.297744-11.228025 15.373836-32.550511 25.623061-51.880548 24.944562-9.273498-0.322851-22.739954-6.041918-29.258461-15.020238-1.551733-2.157462-2.558206-4.337472-3.133188-6.547204 11.528327 11.600072 51.695038 16.24912 69.963255-9.489757 21.044732-29.701227-4.88478-73.901007 24.156397-102.800745 24.405453-24.292711 64.747425-23.131474 90.001513-51.406009C487.813368 698.207907 500.062216 628.640272 582.746808 622.274479zM229.233638 664.450037c1.145863-3.623101 1.416443-7.278999 0.877334-10.810882 1.354947 2.795988 2.205633 6.01527 2.394219 9.671168 0.736919 12.866876-6.160809 26.416351-16.734933 32.935882-17.997638 11.066087-50.088984 10.876477-65.386976 6.501083-44.929525-12.827929-63.41605-53.57577-71.026099-85.48468-15.237522-64.02178 4.531182-122.816455 55.675836-165.514723 44.059365-36.789591 101.562638-51.022688 157.128808-64.794571l17.693236-4.429715c43.87283-11.109134 71.516012-20.214545 86.818104-65.229138 5.477185-16.197874 9.045965-32.528988 12.483555-48.343541 7.580326-34.787917 14.718911-67.667429 40.978449-97.688432 24.812347-28.411875 53.491727-48.038114 85.204876-58.348834l3.621051-1.171486c23.068954-7.549579 72.797165-23.801774 100.335806-18.003787-22.825023 0.811739-52.405309 8.392065-88.447731 22.749178-33.507789 13.333216-68.24241 30.403299-95.156873 64.683879-24.534593 31.219137-33.288456 64.029979-42.532231 98.792273-4.03512 15.146304-8.234227 30.812243-13.821079 46.597073-21.67301 61.005433-69.578909 69.822841-125.008764 80.052591-13.27787 2.437266-27.01798 4.973949-40.682246 8.344918-74.779365 18.394283-127.728908 70.025775-145.261231 141.63813-8.341844 34.037674-2.320424 74.730169 14.992565 101.298208 15.352313 23.574241 42.315972 39.096691 70.42652 40.529533 21.810349 1.12024 40.136987-4.963699 49.023065-16.248095C226.783049 677.143701 228.909763 671.216575 229.233638 664.450037zM641.101792 97.37378c-3.552381 0.140414-7.121161 0.380246-10.667393 0.762542-67.777095 7.180607-133.816947 52.565197-173.152445 106.945531-45.617248 63.133172-21.759103 164.938717-101.952109 205.387281-73.090293 36.875684-171.354731 31.697776-216.400072 115.165409-15.509126 28.777772-18.974389 72.647527-7.818108 103.426972 9.459009 26.107849 46.729288 70.209236 78.08474 55.594867 8.480208-3.953126 14.149054-9.077738 17.50055-14.587721-0.949078 4.064842-2.696571 7.748414-5.262977 11.014841-8.508906 10.826256-26.284136 16.659089-47.544102 15.566522-27.540691-1.385695-53.992914-16.610918-69.0357-39.705495-17.043435-26.177544-22.958262-66.325805-14.749659-99.913538 17.388834-70.954355 69.845389-122.102084 143.984178-140.356977 13.601746-3.339197 27.313158-5.864606 40.569505-8.314171 53.658789-9.884352 104.31353-19.22447 126.343213-81.19743 5.645273-15.864774 9.816707-31.556337 13.850802-46.732363 9.216102-34.571658 17.910519-67.218513 42.229879-98.152721 26.668482-33.945431 61.158146-50.887399 94.417904-64.141696 39.017772-15.525525 70.399872-23.106876 93.657412-22.683583 0.516561 0.20191 1.058745 0.424318 1.551733 0.641601l0.138365 0.302352C644.910403 96.693232 643.010197 97.019157 641.101792 97.37378zM652.467156 97.401453c-0.218308-0.081994-0.441742-0.19166-0.682598-0.273654l0.110692-0.107617c-0.46839-0.343349-0.961377-0.624178-1.448215-0.92653 0.272629-0.126065 0.574981-0.234707 0.845561-0.356673 2.754991 0.250081 5.374693 0.613929 7.878579 1.12229 1.341623 0.490938 2.668898 0.976751 4.009497 1.482038C659.639564 97.863693 656.064634 97.566466 652.467156 97.401453zM918.894717 635.046037c10.715564 30.496567 21.789851 62.042654 12.521477 92.563819-11.943421 39.272978-43.111312 75.432241-90.140903 104.551312-26.041229 16.107681-72.769493 41.739966-114.944026 47.723463 73.854885-16.290117 148.78184-73.913306 173.510143-140.042326 28.355504-75.770465-12.572723-153.633822 2.614577-230.289821 18.381984-92.499249 33.075272-157.855478-5.422865-250.579185-28.954059-69.716249-87.114307-127.678687-158.566774-154.671044-25.280737-9.545103-52.735334-12.298044-80.136635-9.434411-1.123315-0.20396-2.263029-0.354623-3.407867-0.490938 33.89111-12.148406 70.779093-5.573528 96.516945 2.50491 33.398122 10.470608 67.397874 29.394775 93.274091 51.913346 68.680052 59.723255 110.609629 155.027717 104.341203 237.178324-2.262004 29.800645-12.895574 58.369332-23.206294 86.006366-10.70634 28.748049-21.778577 58.493348-23.087403 89.224622C901.663721 585.934829 910.444232 610.905015 918.894717 635.046037z" p-id="2094"></path></svg>